<?xml version="1.0" encoding="utf-8"?>
<svg xmlns="http://www.w3.org/2000/svg" fill="none" height="16" viewBox="0 0 16 16" width="16">
<path d="M4.23444 2.68057L3.25519 3.22251C2.732 3.51166 2.34132 3.72758 2.04794 4.03993C2.04068 4.04766 2.03347 4.05543 2.0263 4.06324L7.99996 7.24464L10.1128 6.1194L4.23444 2.68057Z" fill="white"/>
<path d="M1.40441 5.24267C1.3327 5.58367 1.33297 5.9597 1.3333 6.42332V9.57668C1.33289 10.1528 1.33258 10.5937 1.47035 11.0001C1.59143 11.3574 1.78881 11.6842 2.04794 11.9601C2.34132 12.2724 2.73201 12.4883 3.2552 12.7775L6.09613 14.3498C6.58 14.618 6.94738 14.8216 7.33331 14.9198L7.3333 8.40023L1.40441 5.24267Z" fill="white"/>
<path d="M8.66664 14.9198C9.0526 14.8216 9.41997 14.618 9.90388 14.3498L12.7448 12.7775C13.268 12.4883 13.6587 12.2724 13.9521 11.9601C14.2112 11.6842 14.4086 11.3574 14.5297 11.0001C14.6674 10.5937 14.6671 10.1528 14.6667 9.57667V6.42333C14.667 5.95968 14.6673 5.58365 14.5956 5.24263L8.66663 8.40023L8.66664 14.9198Z" fill="white"/>
<path d="M13.9737 4.06321C13.9665 4.05541 13.9593 4.04765 13.9521 4.03993C13.6587 3.72758 13.268 3.51166 12.7448 3.22252L9.90389 1.65016C9.37782 1.35862 8.98947 1.1434 8.56525 1.05696C8.19251 0.981012 7.80751 0.981012 7.43476 1.05696C7.01055 1.1434 6.6222 1.35862 6.09613 1.65016L5.5913 1.9296L11.495 5.38326L13.9737 4.06321Z" fill="white"/>
</svg>